<svg width="97" height="26" viewBox="0 0 97 26" fill="none" xmlns="http://www.w3.org/2000/svg">
<g id="IMAGE">
<g id="arrow-right-mini-icon">
<path id="Arrow" d="M89.1895 8.1278C92.1289 9.83624 94.7895 12.5192 94.8605 12.6407C95 12.7646 95 12.8862 95 13.0696C95 13.1912 94.9289 13.3746 94.8605 13.4962C94.7895 13.6177 92.0605 16.3007 89.1895 18.0091C88.9789 18.1306 88.7 18.1306 88.4211 18.071C88.2105 17.9495 88 17.766 88 17.5206V15.2642C88 15.2642 81.9105 14.9592 81.6289 14.7757C81.2789 14.4111 81 13.6796 81 13.0077C81 12.3357 81.2789 11.6662 81.6289 11.4208C81.9105 11.2993 88 10.8727 88 10.8727V8.61627C88 8.37084 88.1395 8.18976 88.4211 8.06585C88.6289 7.94433 88.9105 8.00628 89.1895 8.1278Z" fill="#111111"/>
</g>
</g>
</svg>
